<svg width="1506" height="408" xmlns="http://www.w3.org/2000/svg" xmlns:xlink="http://www.w3.org/1999/xlink" xml:space="preserve" overflow="hidden"><g transform="translate(-2375 -406)"><path d="M2667.01 499.619C2663.44 495.985 2661.07 493.955 2657.77 492.848 2654.25 491.669 2649.4 491.336 2640.91 491.137 2635.53 491.009 2630.18 489.874 2625.16 487.73 2620.31 485.658 2615.78 482.648 2611.84 478.716 2603.54 470.419 2599.39 459.552 2599.39 448.679 2599.39 437.805 2603.54 426.938 2611.84 418.641 2620.15 410.344 2631.02 406.199 2641.91 406.199 2652.79 406.199 2663.67 410.344 2671.97 418.641 2675.91 422.573 2678.92 427.108 2680.99 431.949 2683.14 436.96 2684.27 442.305 2684.4 447.685 2684.6 456.089 2684.93 460.929 2686.09 464.457 2687.18 467.75 2689.17 470.099 2692.71 473.585 2693.67 474.521 2694.61 475.451 2695.56 476.374 2700.56 481.286 2705.49 486.14 2710.41 491.222 2714.47 495.431 2716.97 497.774 2720.33 499.023 2723.88 500.336 2728.78 500.691 2737.67 500.897 2743.05 501.024 2748.4 502.16 2753.42 504.304 2758.27 506.376 2762.8 509.385 2766.74 513.317 2775.04 521.615 2779.19 532.482 2779.19 543.355 2779.19 554.229 2775.04 565.095 2766.74 573.393 2758.43 581.69 2747.56 585.835 2736.67 585.835L2736.67 585.821C2734.12 585.821 2731.56 585.594 2729.05 585.139 2728.94 585.125 2728.84 585.111 2728.73 585.09 2721.43 583.486 2704.38 584.863 2683 589.341 2664.95 593.124 2643.94 599.115 2623.22 607.391 2621.32 608.15 2618.81 609.115 2615.97 610.215 2588.42 620.862 2528.5 644.008 2527.47 671.334 2527.42 672.661 2527.29 673.967 2527.15 675.359 2527.12 675.578 2527.1 675.798 2527.08 676.026 2527.2 680.284 2527.83 684.337 2529.35 688.134 2532.17 695.225 2538.14 701.698 2549.63 707.419 2564.65 714.886 2582.78 722.374 2598.84 726.76 2611.59 730.245 2622.93 731.792 2630.14 729.791 2635.32 728.357 2640.76 727.896 2646.19 728.492 2651.41 729.074 2656.62 730.636 2661.54 733.269 2671.9 738.805 2679.03 748.011 2682.18 758.409 2685.33 768.807 2684.51 780.405 2678.96 790.753 2673.42 801.102 2664.21 808.228 2653.8 811.372 2643.39 814.517 2631.78 813.7 2621.43 808.157 2616.5 805.516 2612.3 802.06 2608.92 798.035 2605.42 793.855 2602.77 789.071 2601.1 783.961 2598.15 774.989 2590.6 765.003 2580.73 755.265 2569.18 743.873 2554.52 732.907 2540.22 724.255 2536.98 722.289 2533.62 720.833 2530.19 719.826 2526.58 718.768 2522.9 718.207 2519.19 718.08 2512.06 717.838 2505.35 719.173 2498.84 721.352 2495.43 722.494 2492.07 723.879 2488.71 725.405 2477.6 731.8 2464.7 735.462 2450.96 735.462 2430.04 735.462 2411.09 726.987 2397.38 713.289 2383.67 699.59 2375.19 680.661 2375.19 659.758 2375.19 638.855 2383.67 619.925 2397.38 606.227 2411.09 592.528 2430.04 584.053 2450.96 584.053 2469.29 584.053 2486.11 590.562 2499.21 601.393 2502.1 603.43 2504.92 605.205 2507.97 606.638 2511.06 608.086 2514.42 609.208 2518.37 609.925 2541.21 614.077 2574.87 607.512 2606.73 595.772 2640.31 583.393 2671.7 565.329 2686.14 548.068 2688.59 545.137 2690.5 541.538 2691.6 537.72 2692.61 534.199 2692.93 530.53 2692.33 527.08 2691.3 524.298 2689.57 522.147 2686.7 519.266 2683.91 516.448 2681.09 513.658 2678.27 510.862 2674.51 507.128 2670.74 503.395 2667.01 499.598ZM2661.93 786.622C2662.62 785.927 2663.74 785.927 2664.44 786.622 2665.14 787.318 2665.14 788.439 2664.44 789.135L2664.42 789.156C2659.11 794.955 2651.95 798.064 2644.65 798.412 2637.33 798.76 2629.87 796.318 2624.01 790.994L2623.95 790.938 2623.95 790.938C2623.25 790.242 2623.25 789.121 2623.95 788.425 2624.65 787.73 2625.77 787.73 2626.46 788.425 2631.59 793.046 2638.09 795.175 2644.49 794.87 2650.87 794.565 2657.15 791.839 2661.81 786.75 2661.85 786.708 2661.89 786.658 2661.93 786.615ZM2753.93 524.624C2753.24 523.929 2753.24 522.807 2753.93 522.112 2754.63 521.416 2755.75 521.416 2756.45 522.112 2762.05 527.704 2764.85 535.036 2764.85 542.361 2764.85 549.693 2762.05 557.018 2756.45 562.611 2755.75 563.307 2754.63 563.307 2753.93 562.611 2753.24 561.916 2753.24 560.794 2753.93 560.099 2758.84 555.201 2761.29 548.778 2761.29 542.354 2761.29 535.931 2758.84 529.515 2753.93 524.61ZM2400.37 655.826C2400.37 656.805 2399.58 657.6 2398.6 657.6 2397.62 657.6 2396.82 656.805 2396.82 655.826 2396.82 641.105 2402.79 627.783 2412.44 618.136 2422.09 608.491 2435.43 602.529 2450.16 602.529 2451.14 602.529 2451.94 603.324 2451.94 604.303 2451.94 605.283 2451.14 606.078 2450.16 606.078 2436.41 606.078 2423.96 611.65 2414.96 620.649 2405.95 629.649 2400.37 642.091 2400.37 655.826ZM2522.81 686.395C2522.54 686.275 2522.3 686.119 2522.09 685.927 2518.26 696.311 2512.22 705.63 2504.54 713.303 2504.28 713.566 2504.02 713.821 2503.75 714.077 2508.77 712.891 2513.94 712.26 2519.37 712.444 2523.57 712.586 2527.71 713.211 2531.78 714.41 2535.65 715.546 2539.45 717.2 2543.15 719.442 2557.82 728.322 2572.85 739.564 2584.7 751.254 2595.18 761.589 2603.23 772.335 2606.49 782.236 2607.94 786.651 2610.22 790.796 2613.27 794.423 2616.21 797.915 2619.84 800.917 2624.09 803.189 2633.06 807.979 2643.12 808.689 2652.15 805.956 2661.18 803.224 2669.17 797.063 2673.96 788.106 2678.76 779.149 2679.47 769.091 2676.73 760.07 2674 751.048 2667.83 743.071 2658.86 738.28 2654.6 736.001 2650.09 734.646 2645.55 734.142 2640.84 733.617 2636.11 734.021 2631.63 735.263 2623.36 737.556 2610.98 735.966 2597.33 732.232 2580.84 727.725 2562.34 720.102 2547.08 712.515 2534.18 706.099 2527.39 698.589 2524.07 690.235 2523.57 688.972 2523.15 687.694 2522.8 686.403ZM2476.96 724.83C2479.95 723.318 2482.95 721.841 2485.97 720.457 2491.3 717.377 2496.19 713.615 2500.51 709.293 2513.19 696.623 2521.04 679.113 2521.04 659.779 2521.04 640.445 2513.2 622.935 2500.51 610.265 2487.83 597.596 2470.31 589.753 2450.96 589.753 2431.61 589.753 2414.08 597.589 2401.4 610.265 2388.72 622.935 2380.87 640.445 2380.87 659.779 2380.87 679.113 2388.71 696.623 2401.4 709.293 2414.08 721.962 2431.61 729.805 2450.96 729.805 2460.14 729.805 2468.92 728.038 2476.96 724.83ZM2713.66 579.092C2711.16 577.481 2708.79 575.586 2706.6 573.4 2702.67 569.467 2699.65 564.932 2697.58 560.091 2695.67 555.641 2694.56 550.914 2694.26 546.144 2693.18 548.146 2691.91 550.027 2690.49 551.723 2675.42 569.737 2643.1 588.426 2608.68 601.116 2576.01 613.161 2541.26 619.862 2517.38 615.518 2515.23 615.127 2513.22 614.63 2511.33 614.034 2520.43 626.008 2526.05 640.764 2526.67 656.812 2542.04 632.722 2589.85 614.247 2613.92 604.949 2616.58 603.92 2618.93 603.011 2621.09 602.146 2642.15 593.735 2663.49 587.645 2681.83 583.805 2694.04 581.25 2704.97 579.688 2713.66 579.092ZM2728.9 579.355C2729.26 579.419 2729.61 579.483 2729.94 579.554 2729.98 579.56 2730.02 579.575 2730.07 579.582 2732.25 579.979 2734.46 580.178 2736.67 580.178L2736.67 580.164C2746.09 580.164 2755.52 576.572 2762.71 569.382 2769.9 562.2 2773.5 552.781 2773.5 543.362 2773.5 533.943 2769.9 524.525 2762.71 517.342 2759.28 513.914 2755.36 511.309 2751.19 509.527 2746.82 507.661 2742.18 506.674 2737.55 506.567 2728.01 506.347 2722.64 505.936 2718.35 504.339 2713.88 502.678 2710.97 499.974 2706.32 495.162 2701.44 490.122 2696.54 485.303 2691.58 480.427 2690.63 479.497 2689.69 478.567 2688.74 477.637 2684.53 473.499 2682.14 470.625 2680.69 466.245 2679.32 462.1 2678.95 456.827 2678.73 447.805 2678.63 443.171 2677.64 438.536 2675.77 434.178 2673.98 430.005 2671.37 426.087 2667.95 422.665 2660.76 415.483 2651.33 411.884 2641.91 411.884 2632.48 411.884 2623.05 415.475 2615.87 422.665 2608.68 429.848 2605.07 439.267 2605.07 448.686 2605.07 458.104 2608.67 467.523 2615.87 474.706 2619.3 478.134 2623.22 480.739 2627.39 482.521 2631.75 484.387 2636.39 485.374 2641.03 485.48 2650.11 485.693 2655.39 486.076 2659.57 487.475 2663.98 488.951 2666.86 491.371 2671.05 495.644 2674.77 499.435 2678.51 503.147 2682.26 506.859 2685.08 509.655 2687.9 512.459 2690.71 515.284 2694.23 518.826 2696.35 521.523 2697.7 525.327 2697.73 525.398 2697.75 525.462 2697.77 525.533 2697.86 525.788 2697.94 526.044 2698.02 526.307 2699.27 530.395 2699.63 535.59 2699.83 544.235 2699.93 548.87 2700.92 553.505 2702.79 557.863 2704.58 562.036 2707.18 565.954 2710.61 569.375 2715.82 574.578 2722.19 577.9 2728.89 579.34Z" fill="#4C102A" fill-rule="evenodd"/><path d="M2870.07 478.554 2890.43 478.554 2890.43 563.295 2993.54 563.295 2993.54 478.554 3013.76 478.554 3013.76 680.592 2993.54 680.592 2993.54 583.181 2890.43 583.181 2890.43 680.592 2870.07 680.592 2870.07 478.554ZM3062.65 478.554 3178.74 478.554 3178.74 498.446 3082.86 498.446 3082.86 561.661 3141.32 561.661 3141.32 581.281 3082.86 581.281 3082.86 660.572 3177.92 660.572 3177.92 680.598 3062.65 680.598 3062.65 478.561ZM3208.24 612.483 3208.24 594.499C3209.7 585.508 3211.8 578.196 3214.53 572.564 3220.9 556.942 3229.46 545.498 3240.2 538.232 3250.95 530.966 3259.87 527.333 3266.97 527.333 3272.26 527.333 3277.9 529.059 3283.91 532.51L3273.94 548.586C3265.47 545.497 3257.07 547.995 3248.74 556.078 3240.41 564.163 3234.65 572.973 3231.46 582.51 3229.1 590.956 3227.91 606.805 3227.91 630.057L3227.91 680.601 3208.24 680.601 3208.24 612.482ZM3365.99 524.062C3389.03 524.062 3408.15 532.373 3423.36 548.994 3437.1 564.253 3443.98 582.282 3443.98 603.082 3443.98 623.88 3436.69 642.068 3422.13 657.645 3407.56 673.221 3388.85 681.009 3365.99 681.01 3343.05 681.01 3324.31 673.221 3309.79 657.645 3295.27 642.068 3288.01 623.88 3288.01 603.082 3288.01 582.373 3294.88 564.389 3308.63 549.13 3323.84 532.418 3342.96 524.062 3365.99 524.062ZM3365.99 542.868C3350.06 542.868 3336.36 548.772 3324.88 560.579 3313.41 572.387 3307.67 586.646 3307.67 603.358 3307.67 614.167 3310.29 624.272 3315.53 633.672 3320.76 643.072 3327.84 650.293 3336.77 655.333 3345.69 660.374 3355.43 662.895 3365.99 662.895 3376.74 662.895 3386.55 660.374 3395.43 655.333 3404.3 650.293 3411.34 643.072 3416.53 633.672 3421.72 624.272 3424.31 614.167 3424.31 603.358 3424.31 586.646 3418.58 572.386 3407.1 560.579 3395.63 548.771 3381.93 542.867 3365.99 542.868ZM3478.94 478.01 3543.27 478.01C3559.3 478.01 3571.63 479.918 3580.28 483.732 3588.93 487.547 3595.74 493.406 3600.7 501.308 3605.67 509.21 3608.15 517.929 3608.15 527.466 3608.15 536.458 3605.94 544.632 3601.52 551.989 3597.11 559.346 3590.62 565.294 3582.06 569.837 3592.71 573.469 3600.86 577.67 3606.51 582.438 3612.15 587.207 3616.57 592.997 3619.76 599.809 3622.94 606.621 3624.54 614.023 3624.54 622.016 3624.54 638.274 3618.57 652.012 3606.64 663.228 3594.72 674.445 3578.78 680.054 3558.84 680.054L3478.94 680.054 3478.94 478.017ZM3498.75 497.765 3498.75 562.479 3534.67 562.479C3548.69 562.479 3559 561.162 3565.6 558.528 3572.2 555.894 3577.44 551.784 3581.31 546.198 3585.18 540.613 3587.11 534.368 3587.11 527.465 3587.11 518.201 3583.88 510.935 3577.42 505.667 3570.95 500.399 3560.66 497.765 3546.55 497.765L3498.75 497.765ZM3498.75 582.783 3498.75 660.303 3548.19 660.303C3562.94 660.303 3573.75 658.849 3580.63 655.943 3587.5 653.037 3593.03 648.541 3597.22 642.455 3601.41 636.37 3603.5 629.694 3603.5 622.429 3603.5 613.528 3600.57 605.717 3594.69 598.996 3588.82 592.274 3580.74 587.688 3570.45 585.236 3563.53 583.601 3551.56 582.783 3534.53 582.783L3498.75 582.783ZM3651.72 680.603 3680.53 478.566 3683.81 478.566 3766.17 644.233 3847.57 478.566 3850.85 478.566 3880.07 680.603 3860 680.603 3840.2 536.058 3768.63 680.603 3763.44 680.603 3690.91 535.095 3671.25 680.603 3651.72 680.603Z" fill="#4C102A" fill-rule="evenodd"/><path d="M2993.89 741.156 2999.67 741.156 2999.67 768.894C2999.67 777.644 2994.19 785.025 2982.46 785.025 2970.97 785.025 2966.03 777.644 2966.03 769.667L2966.03 741.156 2971.8 741.156 2971.8 768.06C2971.8 777.346 2977.46 779.905 2982.64 779.905 2987.94 779.905 2993.89 777.465 2993.89 768.179L2993.89 741.156ZM3037.18 775.679 3037.18 741.156 3042.77 741.156 3042.77 783.894 3036.29 783.894 3014.55 749.37 3014.43 749.37 3014.43 783.894 3008.84 783.894 3008.84 741.156 3015.68 741.156 3037.06 775.679 3037.18 775.679ZM3057.6 741.156 3057.6 778.775 3079.27 778.775 3079.27 783.894 3051.82 783.894 3051.82 741.156 3057.6 741.156ZM3118.45 762.525C3118.45 752.465 3112.85 745.143 3103.56 745.143 3094.28 745.143 3088.68 752.465 3088.68 762.525 3088.68 772.584 3094.28 779.905 3103.56 779.905 3112.85 779.905 3118.45 772.584 3118.45 762.525ZM3124.4 762.525C3124.4 771.751 3119.52 785.025 3103.56 785.025 3087.61 785.025 3082.73 771.751 3082.73 762.525 3082.73 753.299 3087.61 740.025 3103.56 740.025 3119.52 740.025 3124.4 753.299 3124.4 762.525ZM3166.85 754.013 3161.26 754.013C3159.65 746.513 3153.4 745.143 3149.29 745.143 3141.55 745.143 3135.3 750.858 3135.3 762.108 3135.3 772.168 3138.87 779.905 3149.47 779.905 3153.22 779.905 3159.71 778.12 3161.67 768.179L3167.27 768.179C3164.89 784.31 3151.79 785.025 3148.58 785.025 3138.87 785.025 3129.34 778.715 3129.34 762.286 3129.34 749.132 3136.85 740.025 3149.29 740.025 3160.3 740.025 3166.02 746.87 3166.85 754.013ZM3180.01 768.894 3180.01 783.894 3174.24 783.894 3174.24 741.156 3180.01 741.156 3180.01 761.87 3200.73 741.156 3208.71 741.156 3190.91 758.417 3209.19 783.894 3201.68 783.894 3186.74 762.465ZM3254.38 771.453 3237.23 771.453 3232.76 783.894 3226.81 783.894 3242.88 741.156 3249.43 741.156 3264.91 783.894 3258.6 783.894ZM3239.01 766.334 3252.29 766.334 3245.98 747.525 3245.86 747.525ZM3266.52 746.275 3266.52 741.156 3301.23 741.156 3301.23 746.275 3286.76 746.275 3286.76 783.894 3280.99 783.894 3280.99 746.275 3266.52 746.275ZM3340.11 762.525C3340.11 752.465 3334.52 745.143 3325.23 745.143 3315.94 745.143 3310.34 752.465 3310.34 762.525 3310.34 772.584 3315.94 779.905 3325.23 779.905 3334.52 779.905 3340.11 772.584 3340.11 762.525ZM3346.07 762.525C3346.07 771.751 3341.18 785.025 3325.23 785.025 3309.27 785.025 3304.39 771.751 3304.39 762.525 3304.39 753.299 3309.27 740.025 3325.23 740.025 3341.18 740.025 3346.07 753.299 3346.07 762.525ZM3393.7 783.894 3388.1 783.894 3388.1 758.656C3388.1 757.405 3388.22 751.989 3388.22 748.001L3388.1 748.001 3376.07 783.894 3370.36 783.894 3358.33 748.06 3358.21 748.06C3358.21 751.989 3358.33 757.405 3358.33 758.656L3358.33 783.894 3352.73 783.894 3352.73 741.156 3361.01 741.156 3373.22 777.286 3373.33 777.286 3385.48 741.156 3393.7 741.156 3393.7 783.894ZM3409.18 741.156 3409.18 783.894 3403.4 783.894 3403.4 741.156 3409.18 741.156ZM3450.26 753.655 3444.84 753.655C3444.54 747.048 3439.06 744.965 3434.24 744.965 3430.61 744.965 3424.48 745.977 3424.48 752.465 3424.48 756.096 3427.04 757.286 3429.54 757.882L3441.74 760.679C3447.28 761.989 3451.45 765.322 3451.45 772.108 3451.45 782.227 3442.04 785.025 3434.72 785.025 3426.8 785.025 3423.7 782.644 3421.8 780.917 3418.17 777.644 3417.45 774.072 3417.45 770.084L3422.87 770.084C3422.87 777.822 3429.18 780.084 3434.66 780.084 3438.83 780.084 3445.85 779.013 3445.85 772.882 3445.85 768.418 3443.77 766.989 3436.74 765.322L3427.99 763.298C3425.19 762.644 3418.88 760.679 3418.88 753.239 3418.88 746.572 3423.23 740.025 3433.59 740.025 3448.53 740.025 3450.02 748.953 3450.26 753.655ZM3455.08 746.275 3455.08 741.156 3489.79 741.156 3489.79 746.275 3475.32 746.275 3475.32 783.894 3469.55 783.894 3469.55 746.275 3455.08 746.275ZM3501.82 741.156 3501.82 783.894 3496.04 783.894 3496.04 741.156 3501.82 741.156ZM3547.31 754.013 3541.71 754.013C3540.1 746.513 3533.85 745.143 3529.74 745.143 3522 745.143 3515.75 750.858 3515.75 762.108 3515.75 772.168 3519.32 779.905 3529.92 779.905 3533.67 779.905 3540.16 778.12 3542.13 768.179L3547.72 768.179C3545.34 784.31 3532.24 785.025 3529.03 785.025 3519.32 785.025 3509.8 778.715 3509.8 762.286 3509.8 749.132 3517.3 740.025 3529.74 740.025 3540.76 740.025 3546.47 746.87 3547.31 754.013ZM3571.54 783.894 3571.54 741.156 3588.86 741.156C3600 741.156 3606.85 749.608 3606.85 761.929 3606.85 771.513 3602.68 783.894 3588.63 783.894L3571.54 783.894ZM3577.31 746.096 3577.31 778.953 3588.51 778.953C3596.01 778.953 3600.89 773.06 3600.89 762.286 3600.89 751.513 3595.95 746.096 3588.09 746.096L3577.31 746.096ZM3646.38 778.775 3646.38 783.894 3614.82 783.894 3614.82 741.156 3645.96 741.156 3645.96 746.275 3620.6 746.275 3620.6 759.37 3644 759.37 3644 764.489 3620.6 764.489 3620.6 778.775 3646.38 778.775ZM3650.25 746.275 3650.25 741.156 3684.96 741.156 3684.96 746.275 3670.49 746.275 3670.49 783.894 3664.72 783.894 3664.72 746.275 3650.25 746.275ZM3714.19 771.453 3697.05 771.453 3692.58 783.894 3686.63 783.894 3702.7 741.156 3709.25 741.156 3724.73 783.894 3718.42 783.894ZM3698.83 766.334 3712.11 766.334 3705.8 747.525 3705.68 747.525ZM3736.7 741.156 3736.7 783.894 3730.92 783.894 3730.92 741.156 3736.7 741.156ZM3752.36 741.156 3752.36 778.775 3774.03 778.775 3774.03 783.894 3746.58 783.894 3746.58 741.156 3752.36 741.156Z" fill="#4C102A" fill-rule="evenodd"/></g></svg>